<mxfile host="www.draw.io" modified="2020-06-22T00:36:33.326Z" agent="5.0 (Macintosh; Intel Mac OS X 10_14_5) AppleWebKit/537.36 (KHTML, like Gecko) Chrome/81.0.4044.138 Safari/537.36" etag="xWx9sh2LjVfYZqbg0qDx" version="13.3.0" type="github" pages="4">
  <diagram id="kmjhnKm2TKJHIyiYtB56" name="Page-1">
    <mxGraphModel dx="556" dy="340" grid="1" gridSize="10" guides="1" tooltips="1" connect="1" arrows="1" fold="1" page="1" pageScale="1" pageWidth="1100" pageHeight="850" math="0" shadow="0">
      <root>
        <mxCell id="0" />
        <mxCell id="1" parent="0" />
        <mxCell id="CSKR0XeA0UPNSw7-Kzpn-4" value="" style="group" vertex="1" connectable="0" parent="1">
          <mxGeometry x="210" y="80" width="612" height="606" as="geometry" />
        </mxCell>
        <mxCell id="ZCC0vsF5aBIYuFwtmIaz-129" value="" style="triangle;whiteSpace=wrap;html=1;shadow=0;strokeColor=#005700;fillColor=none;direction=south;fontColor=#006600;" vertex="1" parent="CSKR0XeA0UPNSw7-Kzpn-4">
          <mxGeometry x="103" y="152" width="200" height="150" as="geometry" />
        </mxCell>
        <mxCell id="ZCC0vsF5aBIYuFwtmIaz-168" value="" style="triangle;whiteSpace=wrap;html=1;shadow=0;strokeColor=#005700;fillColor=none;direction=south;fontColor=#006600;flipH=1;flipV=1;" vertex="1" parent="CSKR0XeA0UPNSw7-Kzpn-4">
          <mxGeometry x="103" width="200" height="150" as="geometry" />
        </mxCell>
        <mxCell id="qyVIdLSaxjaKyciel1az-79" value="Digital ID &lt;br style=&quot;font-size: 4px;&quot;&gt;Wallet" style="html=1;verticalLabelPosition=middle;align=left;labelBackgroundColor=none;verticalAlign=middle;strokeWidth=1;strokeColor=#008A00;shadow=0;dashed=0;shape=mxgraph.ios7.icons.wallet;fillColor=none;fontSize=4;fontColor=#CC0000;labelPosition=right;" parent="CSKR0XeA0UPNSw7-Kzpn-4" vertex="1">
          <mxGeometry x="132" y="124" width="20" height="15" as="geometry" />
        </mxCell>
        <mxCell id="ZCC0vsF5aBIYuFwtmIaz-130" value="" style="triangle;whiteSpace=wrap;html=1;shadow=0;strokeColor=#005700;fillColor=none;direction=south;fontColor=#006600;flipH=0;flipV=1;" vertex="1" parent="CSKR0XeA0UPNSw7-Kzpn-4">
          <mxGeometry x="204.65000000000003" y="456" width="200" height="150" as="geometry" />
        </mxCell>
        <mxCell id="ZCC0vsF5aBIYuFwtmIaz-134" value="" style="triangle;whiteSpace=wrap;html=1;shadow=0;strokeColor=#005700;fillColor=none;direction=south;fontColor=#006600;" vertex="1" parent="CSKR0XeA0UPNSw7-Kzpn-4">
          <mxGeometry x="103" y="456" width="200" height="150" as="geometry" />
        </mxCell>
        <mxCell id="ZCC0vsF5aBIYuFwtmIaz-135" value="" style="triangle;whiteSpace=wrap;html=1;shadow=0;strokeColor=#005700;fillColor=none;direction=south;fontColor=#006600;" vertex="1" parent="CSKR0XeA0UPNSw7-Kzpn-4">
          <mxGeometry x="307" y="456" width="200" height="150" as="geometry" />
        </mxCell>
        <mxCell id="ZCC0vsF5aBIYuFwtmIaz-136" value="" style="triangle;whiteSpace=wrap;html=1;shadow=0;strokeColor=#005700;fillColor=none;direction=south;fontColor=#006600;" vertex="1" parent="CSKR0XeA0UPNSw7-Kzpn-4">
          <mxGeometry x="0.46999999999999886" y="304" width="200" height="150" as="geometry" />
        </mxCell>
        <mxCell id="ZCC0vsF5aBIYuFwtmIaz-167" value="" style="triangle;whiteSpace=wrap;html=1;shadow=0;strokeColor=#005700;fillColor=none;direction=south;fontColor=#006600;flipH=1;flipV=1;" vertex="1" parent="CSKR0XeA0UPNSw7-Kzpn-4">
          <mxGeometry x="307" width="200" height="150" as="geometry" />
        </mxCell>
        <mxCell id="ZCC0vsF5aBIYuFwtmIaz-169" value="" style="triangle;whiteSpace=wrap;html=1;shadow=0;strokeColor=#005700;fillColor=none;direction=south;fontColor=#006600;flipH=1;flipV=0;" vertex="1" parent="CSKR0XeA0UPNSw7-Kzpn-4">
          <mxGeometry x="204.64999999999998" width="200" height="150" as="geometry" />
        </mxCell>
        <mxCell id="qyVIdLSaxjaKyciel1az-81" value="Driver&#39;s&lt;br style=&quot;font-size: 4px;&quot;&gt;Licence" style="pointerEvents=1;shadow=0;dashed=0;html=1;strokeColor=none;fillColor=#008a00;labelPosition=left;verticalLabelPosition=middle;verticalAlign=middle;outlineConnect=0;align=right;shape=mxgraph.office.concepts.contacts;fontColor=#CC0000;labelBackgroundColor=none;fontSize=4;" parent="CSKR0XeA0UPNSw7-Kzpn-4" vertex="1">
          <mxGeometry x="242" y="9" width="30" height="20" as="geometry" />
        </mxCell>
        <mxCell id="qyVIdLSaxjaKyciel1az-89" value="Biometrics" style="verticalLabelPosition=middle;html=1;fillColor=#008a00;verticalAlign=middle;points=[[0.145,0.145,0],[0.8555,0.145,0],[0.855,0.855,0],[0.145,0.855,0],[0.5,0,0], [1,0.5,0], [0.5,1,0],[0,0.5,0]];pointerEvents=1;align=right;shape=mxgraph.cisco_safe.capability.identity_authorization;shadow=0;labelBackgroundColor=none;strokeColor=none;strokeWidth=1;fontSize=4;fontColor=#CC0000;labelPosition=left;" parent="CSKR0XeA0UPNSw7-Kzpn-4" vertex="1">
          <mxGeometry x="265.40999999999997" y="124" width="20" height="20" as="geometry" />
        </mxCell>
        <mxCell id="qyVIdLSaxjaKyciel1az-28" value="Issued&lt;br style=&quot;font-size: 4px;&quot;&gt;Access&amp;nbsp;&amp;nbsp;&lt;br style=&quot;font-size: 4px;&quot;&gt;badge" style="pointerEvents=1;shadow=0;dashed=0;html=1;strokeColor=none;fillColor=#008a00;labelPosition=right;verticalLabelPosition=middle;verticalAlign=middle;outlineConnect=0;align=left;shape=mxgraph.office.concepts.contacts;fontColor=#CC0000;labelBackgroundColor=none;fontSize=4;" parent="CSKR0XeA0UPNSw7-Kzpn-4" vertex="1">
          <mxGeometry x="342" y="9" width="30" height="20" as="geometry" />
        </mxCell>
        <mxCell id="qyVIdLSaxjaKyciel1az-87" value="" style="image;html=1;labelBackgroundColor=none;image=img/lib/clip_art/finance/Credit_Card_128x128.png;shadow=0;strokeColor=none;fillColor=#008a00;fontColor=#CC0000;fontSize=4;labelPosition=center;verticalLabelPosition=top;align=center;verticalAlign=bottom;" parent="CSKR0XeA0UPNSw7-Kzpn-4" vertex="1">
          <mxGeometry x="285.40999999999997" y="55.85000000000002" width="38.48" height="30" as="geometry" />
        </mxCell>
        <mxCell id="qyVIdLSaxjaKyciel1az-401" value="Passport" style="shape=image;html=1;verticalAlign=top;verticalLabelPosition=bottom;labelBackgroundColor=none;imageAspect=0;aspect=fixed;image=https://cdn0.iconfinder.com/data/icons/travel-filled-line-4/64/Travel-Filled-08-128.png;strokeWidth=1;fillColor=none;fontSize=4;fontColor=#CC0000;" parent="CSKR0XeA0UPNSw7-Kzpn-4" vertex="1">
          <mxGeometry x="292" y="9" width="30" height="30" as="geometry" />
        </mxCell>
        <mxCell id="ZCC0vsF5aBIYuFwtmIaz-139" value="Address" style="pointerEvents=1;shadow=0;dashed=0;html=1;strokeColor=none;labelPosition=center;verticalLabelPosition=bottom;verticalAlign=top;outlineConnect=0;align=center;shape=mxgraph.office.concepts.home;fillColor=#006600;fontSize=4;fontColor=#FF0000;" vertex="1" parent="CSKR0XeA0UPNSw7-Kzpn-4">
          <mxGeometry x="188.75" y="16" width="27.25" height="25" as="geometry" />
        </mxCell>
        <mxCell id="ZCC0vsF5aBIYuFwtmIaz-218" value="Signature" style="shape=image;html=1;verticalAlign=top;verticalLabelPosition=bottom;labelBackgroundColor=none;imageAspect=0;aspect=fixed;image=https://cdn3.iconfinder.com/data/icons/seo-black-fill-easy-1/128/signature_edit_electronic_signature_pen_-128.png;fillColor=#006600;fontSize=4;fontColor=#CC0000;fontStyle=0" vertex="1" parent="CSKR0XeA0UPNSw7-Kzpn-4">
          <mxGeometry x="220.29999999999995" y="64.14999999999992" width="21.7" height="21.7" as="geometry" />
        </mxCell>
        <mxCell id="ZCC0vsF5aBIYuFwtmIaz-213" value="&lt;font color=&quot;#cc0000&quot;&gt;Qualifications&lt;/font&gt;" style="shape=image;html=1;verticalAlign=top;verticalLabelPosition=bottom;labelBackgroundColor=none;imageAspect=0;aspect=fixed;image=https://cdn4.iconfinder.com/data/icons/success-filloutline/64/certificate-patent-education-diploma-degree-128.png;fillColor=#006600;fontSize=4;fontColor=#FF0000;labelPosition=center;align=center;" vertex="1" parent="CSKR0XeA0UPNSw7-Kzpn-4">
          <mxGeometry x="367" y="61" width="28" height="28" as="geometry" />
        </mxCell>
        <mxCell id="ZCC0vsF5aBIYuFwtmIaz-231" value="Membership" style="pointerEvents=1;shadow=0;dashed=0;html=1;strokeColor=none;fillColor=#008a00;labelPosition=center;verticalLabelPosition=bottom;verticalAlign=top;outlineConnect=0;align=center;shape=mxgraph.office.concepts.contacts;fontColor=#CC0000;labelBackgroundColor=none;fontSize=4;" vertex="1" parent="CSKR0XeA0UPNSw7-Kzpn-4">
          <mxGeometry x="289.65" y="96" width="30" height="20" as="geometry" />
        </mxCell>
        <mxCell id="ZCC0vsF5aBIYuFwtmIaz-229" value="Vehicle&lt;br&gt;Registration" style="shape=image;html=1;verticalAlign=top;verticalLabelPosition=bottom;labelBackgroundColor=none;imageAspect=0;aspect=fixed;image=https://cdn4.iconfinder.com/data/icons/Free-Medical-Icons-Set/128x128/Application.png;fillColor=#006600;fontSize=4;fontColor=#CC0000;" vertex="1" parent="CSKR0XeA0UPNSw7-Kzpn-4">
          <mxGeometry x="394" y="14.5" width="28" height="28" as="geometry" />
        </mxCell>
        <mxCell id="ZCC0vsF5aBIYuFwtmIaz-212" value="&lt;font style=&quot;font-size: 4px&quot;&gt;Contact Profile&lt;br style=&quot;font-size: 4px&quot;&gt;&lt;/font&gt;" style="html=1;strokeColor=none;fillColor=#006600;labelPosition=center;verticalLabelPosition=middle;verticalAlign=top;align=center;fontSize=4;outlineConnect=0;spacingTop=-6;fontColor=#FFFFFF;shape=mxgraph.sitemap.contact;shadow=0;labelBackgroundColor=none;" vertex="1" parent="CSKR0XeA0UPNSw7-Kzpn-4">
          <mxGeometry x="332" y="114" width="40" height="30" as="geometry" />
        </mxCell>
        <mxCell id="ZCC0vsF5aBIYuFwtmIaz-211" value="&lt;font style=&quot;font-size: 4px&quot;&gt;Employment Profile&lt;br style=&quot;font-size: 4px&quot;&gt;&lt;/font&gt;" style="html=1;strokeColor=none;fillColor=#006600;labelPosition=center;verticalLabelPosition=middle;verticalAlign=top;align=center;fontSize=4;outlineConnect=0;spacingTop=-6;fontColor=#FFFFFF;shape=mxgraph.sitemap.contact;shadow=0;labelBackgroundColor=none;" vertex="1" parent="CSKR0XeA0UPNSw7-Kzpn-4">
          <mxGeometry x="387" y="114" width="40" height="30" as="geometry" />
        </mxCell>
        <mxCell id="qyVIdLSaxjaKyciel1az-78" value="&lt;font style=&quot;font-size: 4px&quot;&gt;Bio Profile&lt;br style=&quot;font-size: 4px&quot;&gt;&lt;/font&gt;" style="html=1;strokeColor=none;fillColor=#006600;labelPosition=center;verticalLabelPosition=middle;verticalAlign=top;align=center;fontSize=4;outlineConnect=0;spacingTop=-6;fontColor=#FFFFFF;shape=mxgraph.sitemap.contact;shadow=0;labelBackgroundColor=none;" parent="CSKR0XeA0UPNSw7-Kzpn-4" vertex="1">
          <mxGeometry x="442" y="114" width="40" height="30" as="geometry" />
        </mxCell>
        <mxCell id="ZCC0vsF5aBIYuFwtmIaz-214" value="&lt;font color=&quot;#cc0000&quot;&gt;Recognitions&lt;/font&gt;" style="shape=image;html=1;verticalAlign=top;verticalLabelPosition=bottom;labelBackgroundColor=none;imageAspect=0;aspect=fixed;image=https://cdn4.iconfinder.com/data/icons/success-filloutline/64/certificate-patent-education-diploma-degree-128.png;fillColor=#006600;fontSize=4;fontColor=#FF0000;labelPosition=center;align=center;" vertex="1" parent="CSKR0XeA0UPNSw7-Kzpn-4">
          <mxGeometry x="421" y="61" width="28" height="28" as="geometry" />
        </mxCell>
        <mxCell id="ZCC0vsF5aBIYuFwtmIaz-237" value="Badge" style="shape=image;html=1;verticalAlign=top;verticalLabelPosition=bottom;labelBackgroundColor=#ffffff;imageAspect=0;aspect=fixed;image=https://cdn2.iconfinder.com/data/icons/identificon/96/profile-male-128.png;fillColor=#006600;fontSize=4;fontColor=#CC0000;" vertex="1" parent="CSKR0XeA0UPNSw7-Kzpn-4">
          <mxGeometry x="165.5" y="64.14999999999998" width="22.5" height="22.5" as="geometry" />
        </mxCell>
        <mxCell id="qyVIdLSaxjaKyciel1az-45" value="Trusted&amp;nbsp; Secure&lt;br style=&quot;font-size: 4px&quot;&gt;Credentials" style="outlineConnect=0;fontColor=#CC0000;fillColor=#008a00;strokeColor=none;dashed=0;verticalLabelPosition=bottom;verticalAlign=top;align=center;html=1;fontSize=4;fontStyle=0;aspect=fixed;pointerEvents=1;shape=mxgraph.aws4.long_term_security_credential;shadow=0;labelBackgroundColor=none;labelPosition=center;" parent="CSKR0XeA0UPNSw7-Kzpn-4" vertex="1">
          <mxGeometry x="453.53" y="462.69999999999993" width="16.95" height="22.61" as="geometry" />
        </mxCell>
        <mxCell id="qyVIdLSaxjaKyciel1az-322" value="Data Encryption&lt;br style=&quot;font-size: 4px;&quot;&gt;key" style="outlineConnect=0;fontColor=#CC0000;fillColor=#008a00;strokeColor=none;dashed=0;verticalLabelPosition=bottom;verticalAlign=top;align=center;html=1;fontSize=4;fontStyle=0;aspect=fixed;pointerEvents=1;shape=mxgraph.aws4.data_encryption_key;labelBackgroundColor=none;" parent="CSKR0XeA0UPNSw7-Kzpn-4" vertex="1">
          <mxGeometry x="343.75" y="466.5" width="16.51" height="20.77" as="geometry" />
        </mxCell>
        <mxCell id="qyVIdLSaxjaKyciel1az-74" value="Issued Trusted&amp;nbsp;&amp;nbsp;&lt;br style=&quot;font-size: 4px&quot;&gt;Certificate" style="verticalLabelPosition=bottom;html=1;verticalAlign=top;align=center;strokeColor=none;fillColor=#008a00;shape=mxgraph.azure.certificate;pointerEvents=1;shadow=0;fontSize=4;fontColor=#CC0000;labelBackgroundColor=none;labelPosition=center;" parent="CSKR0XeA0UPNSw7-Kzpn-4" vertex="1">
          <mxGeometry x="395" y="466.5" width="20" height="15" as="geometry" />
        </mxCell>
        <mxCell id="qyVIdLSaxjaKyciel1az-44" value="Domain &lt;br&gt;name" style="shadow=0;dashed=0;html=1;strokeColor=none;fillColor=#008a00;labelPosition=left;verticalLabelPosition=middle;verticalAlign=middle;align=right;outlineConnect=0;shape=mxgraph.veeam.dns;fontColor=#CC0000;labelBackgroundColor=none;fontSize=4;" parent="CSKR0XeA0UPNSw7-Kzpn-4" vertex="1">
          <mxGeometry x="152" y="314" width="20" height="20" as="geometry" />
        </mxCell>
        <mxCell id="qyVIdLSaxjaKyciel1az-359" value="" style="shape=image;html=1;verticalAlign=top;verticalLabelPosition=bottom;labelBackgroundColor=#ffffff;imageAspect=0;aspect=fixed;image=https://cdn3.iconfinder.com/data/icons/delta/128/File_URL.png;strokeWidth=1;fillColor=none;fontSize=4;fontColor=#CC0000;" parent="CSKR0XeA0UPNSw7-Kzpn-4" vertex="1">
          <mxGeometry x="86.13999999999999" y="354" width="26.57" height="26.57" as="geometry" />
        </mxCell>
        <mxCell id="qyVIdLSaxjaKyciel1az-283" value="Static IP &lt;br&gt;Address" style="outlineConnect=0;fontColor=#CC0000;strokeColor=none;fillColor=#008a00;dashed=0;verticalLabelPosition=middle;verticalAlign=middle;align=left;html=1;fontSize=4;fontStyle=0;aspect=fixed;shape=mxgraph.aws4.resourceIcon;resIcon=mxgraph.aws4.elastic_ip_address;labelBackgroundColor=none;labelPosition=right;" parent="CSKR0XeA0UPNSw7-Kzpn-4" vertex="1">
          <mxGeometry x="32" y="314" width="20" height="20" as="geometry" />
        </mxCell>
        <mxCell id="qyVIdLSaxjaKyciel1az-76" value="SAML&lt;br&gt;Token" style="outlineConnect=0;dashed=0;verticalLabelPosition=middle;verticalAlign=middle;align=right;html=1;shape=mxgraph.aws3.saml_token;fillColor=#008a00;shadow=0;labelBackgroundColor=none;strokeColor=none;strokeWidth=1;fontSize=4;fontColor=#CC0000;labelPosition=left;" parent="CSKR0XeA0UPNSw7-Kzpn-4" vertex="1">
          <mxGeometry x="197.47000000000003" y="466.4999999999999" width="15" height="15" as="geometry" />
        </mxCell>
        <mxCell id="qyVIdLSaxjaKyciel1az-372" value="&lt;font style=&quot;font-size: 4px&quot;&gt;JWT &lt;br&gt;Token&lt;/font&gt;" style="outlineConnect=0;fontColor=#CC0000;fillColor=#008a00;strokeColor=none;dashed=0;verticalLabelPosition=middle;verticalAlign=middle;align=right;html=1;fontSize=6;fontStyle=0;aspect=fixed;pointerEvents=1;shape=mxgraph.aws4.saml_token;labelBackgroundColor=none;labelPosition=left;" parent="CSKR0XeA0UPNSw7-Kzpn-4" vertex="1">
          <mxGeometry x="137" y="466.5" width="15" height="15" as="geometry" />
        </mxCell>
        <mxCell id="qyVIdLSaxjaKyciel1az-77" value="Token" style="outlineConnect=0;fontColor=#CC0000;fillColor=#008a00;strokeColor=none;dashed=0;verticalLabelPosition=bottom;verticalAlign=top;align=center;html=1;fontSize=4;fontStyle=0;aspect=fixed;pointerEvents=1;shape=mxgraph.aws4.mfa_token;shadow=0;labelBackgroundColor=none;labelPosition=center;" parent="CSKR0XeA0UPNSw7-Kzpn-4" vertex="1">
          <mxGeometry x="192.99999999999994" y="557.38" width="20" height="20" as="geometry" />
        </mxCell>
        <mxCell id="qyVIdLSaxjaKyciel1az-381" value="&lt;font style=&quot;font-size: 4px&quot;&gt;OAuth&lt;br&gt;Token&lt;br&gt;&lt;/font&gt;" style="outlineConnect=0;fontColor=#CC0000;fillColor=#008a00;strokeColor=none;dashed=0;verticalLabelPosition=middle;verticalAlign=middle;align=right;html=1;fontSize=6;fontStyle=0;aspect=fixed;pointerEvents=1;shape=mxgraph.aws4.saml_token;labelBackgroundColor=none;labelPosition=left;" parent="CSKR0XeA0UPNSw7-Kzpn-4" vertex="1">
          <mxGeometry x="265.4100000000001" y="466.5" width="15" height="15" as="geometry" />
        </mxCell>
        <mxCell id="qyVIdLSaxjaKyciel1az-333" value="OpenID URLs&lt;br&gt;XRIs" style="shape=image;html=1;verticalAlign=top;verticalLabelPosition=bottom;labelBackgroundColor=none;imageAspect=0;aspect=fixed;image=https://cdn4.iconfinder.com/data/icons/logos-and-brands/512/239_Openid_logo-128.png;strokeWidth=1;fillColor=none;fontSize=4;fontColor=#CC0000;labelPosition=center;align=center;" parent="CSKR0XeA0UPNSw7-Kzpn-4" vertex="1">
          <mxGeometry x="186.55" y="504" width="28" height="28" as="geometry" />
        </mxCell>
        <mxCell id="ZCC0vsF5aBIYuFwtmIaz-219" value="Login Profile" style="html=1;strokeColor=none;fillColor=#006600;labelPosition=center;verticalLabelPosition=middle;verticalAlign=top;align=center;fontSize=4;outlineConnect=0;spacingTop=-6;fontColor=#FFFFFF;shape=mxgraph.sitemap.login;labelBackgroundColor=none;" vertex="1" parent="CSKR0XeA0UPNSw7-Kzpn-4">
          <mxGeometry x="183" y="164" width="40" height="30" as="geometry" />
        </mxCell>
        <mxCell id="ZCC0vsF5aBIYuFwtmIaz-249" value="QR Code" style="shape=image;html=1;verticalAlign=top;verticalLabelPosition=bottom;labelBackgroundColor=none;imageAspect=0;aspect=fixed;image=https://cdn1.iconfinder.com/data/icons/ios-11-glyphs/30/qr_code-128.png;fillColor=#006600;fontSize=4;fontColor=#CC0000;" vertex="1" parent="CSKR0XeA0UPNSw7-Kzpn-4">
          <mxGeometry x="88.23000000000002" y="404" width="24.48" height="24.48" as="geometry" />
        </mxCell>
        <mxCell id="ZCC0vsF5aBIYuFwtmIaz-259" value="Cryptographic&amp;nbsp;&lt;br&gt;Key" style="shape=image;html=1;verticalAlign=bottom;verticalLabelPosition=top;labelBackgroundColor=none;imageAspect=0;aspect=fixed;image=https://cdn3.iconfinder.com/data/icons/cad-database-presentation-spreadsheet-vector-fil-2/512/12-128.png;fillColor=#006600;fontSize=4;fontColor=#CC0000;labelPosition=center;align=center;" vertex="1" parent="CSKR0XeA0UPNSw7-Kzpn-4">
          <mxGeometry x="394" y="520.2899999999998" width="21.43" height="21.43" as="geometry" />
        </mxCell>
        <mxCell id="qyVIdLSaxjaKyciel1az-73" value="&lt;font style=&quot;font-size: 4px&quot;&gt;Permissions&lt;/font&gt;" style="outlineConnect=0;fontColor=#CC0000;fillColor=#008a00;strokeColor=none;dashed=0;verticalLabelPosition=top;verticalAlign=bottom;align=center;html=1;fontSize=8;fontStyle=0;aspect=fixed;pointerEvents=1;shape=mxgraph.aws4.permissions;shadow=0;labelBackgroundColor=none;labelPosition=center;" parent="CSKR0XeA0UPNSw7-Kzpn-4" vertex="1">
          <mxGeometry x="62.00000000000006" y="234" width="15" height="20" as="geometry" />
        </mxCell>
        <mxCell id="ZCC0vsF5aBIYuFwtmIaz-264" value="" style="triangle;whiteSpace=wrap;html=1;shadow=0;strokeColor=#005700;fillColor=none;direction=south;fontColor=#006600;flipH=1;flipV=1;" vertex="1" parent="CSKR0XeA0UPNSw7-Kzpn-4">
          <mxGeometry y="152" width="200" height="150" as="geometry" />
        </mxCell>
        <mxCell id="qyVIdLSaxjaKyciel1az-29" value="" style="group;fontSize=10;fontColor=#FF0000;" parent="CSKR0XeA0UPNSw7-Kzpn-4" vertex="1" connectable="0">
          <mxGeometry x="102" y="304" width="303.1" height="150" as="geometry" />
        </mxCell>
        <mxCell id="qyVIdLSaxjaKyciel1az-30" value="Software&lt;br&gt;&lt;br&gt;&lt;br&gt;Object" style="triangle;whiteSpace=wrap;html=1;shadow=0;strokeColor=#FF0000;fillColor=none;direction=north;fontSize=10;fontColor=#FF0000;" parent="qyVIdLSaxjaKyciel1az-29" vertex="1">
          <mxGeometry x="1" width="200" height="150" as="geometry" />
        </mxCell>
        <mxCell id="qyVIdLSaxjaKyciel1az-31" value="" style="pointerEvents=1;shadow=0;dashed=0;html=1;strokeColor=none;fillColor=#CC0000;labelPosition=center;verticalLabelPosition=bottom;verticalAlign=top;outlineConnect=0;align=center;shape=mxgraph.office.concepts.web_services;fontColor=#FF0000;fontSize=10;" parent="qyVIdLSaxjaKyciel1az-29" vertex="1">
          <mxGeometry x="82.60766495456333" y="112.40506329113924" width="33.18846305807981" height="30.37974683544304" as="geometry" />
        </mxCell>
        <mxCell id="qyVIdLSaxjaKyciel1az-32" value="" style="html=1;dashed=0;whitespace=wrap;fillColor=#CC0000;strokeColor=none;points=[[0.005,0.63,0],[0.1,0.2,0],[0.9,0.2,0],[0.5,0,0],[0.995,0.63,0],[0.72,0.99,0],[0.5,1,0],[0.28,0.99,0]];shape=mxgraph.kubernetes.icon;prIcon=api;shadow=0;fontColor=#FF0000;fontSize=10;" parent="qyVIdLSaxjaKyciel1az-29" vertex="1">
          <mxGeometry x="23.342552350849438" y="112.40506329113924" width="31.608060055314105" height="30.37974683544304" as="geometry" />
        </mxCell>
        <mxCell id="qyVIdLSaxjaKyciel1az-33" value="" style="aspect=fixed;pointerEvents=1;shadow=0;dashed=0;html=1;strokeColor=none;labelPosition=center;verticalLabelPosition=bottom;verticalAlign=top;align=center;shape=mxgraph.mscae.enterprise.website_generic;fillColor=#CC0000;fontColor=#FF0000;fontSize=10;" parent="qyVIdLSaxjaKyciel1az-29" vertex="1">
          <mxGeometry x="140" y="112.41" width="35.93" height="31.61" as="geometry" />
        </mxCell>
        <mxCell id="qyVIdLSaxjaKyciel1az-34" value="" style="dashed=0;aspect=fixed;verticalLabelPosition=bottom;verticalAlign=top;align=center;shape=mxgraph.gmdl.chat;strokeColor=none;fillColor=#CC0000;shadow=0;fontColor=#FF0000;fontSize=10;" parent="qyVIdLSaxjaKyciel1az-29" vertex="1">
          <mxGeometry x="89.99806795732908" y="23.00075949367089" width="20" height="20" as="geometry" />
        </mxCell>
        <mxCell id="ZCC0vsF5aBIYuFwtmIaz-7" value="" style="shape=image;html=1;verticalAlign=top;verticalLabelPosition=bottom;labelBackgroundColor=#ffffff;imageAspect=0;aspect=fixed;image=https://cdn2.iconfinder.com/data/icons/botcons/100/android-bot-round-happy-eyes-virus-red-128.png;strokeWidth=1;fillColor=none;fontSize=10;fontColor=#FF0000;" vertex="1" parent="qyVIdLSaxjaKyciel1az-29">
          <mxGeometry x="110.00000000000006" y="63" width="28" height="28" as="geometry" />
        </mxCell>
        <mxCell id="ZCC0vsF5aBIYuFwtmIaz-8" value="" style="outlineConnect=0;dashed=0;verticalLabelPosition=bottom;verticalAlign=top;align=center;html=1;shape=mxgraph.aws3.agent;fillColor=#CC0000;labelBackgroundColor=none;strokeWidth=1;fontSize=10;fontColor=#FF0000;strokeColor=none;" vertex="1" parent="qyVIdLSaxjaKyciel1az-29">
          <mxGeometry x="63.610000000000056" y="67" width="19" height="20" as="geometry" />
        </mxCell>
        <mxCell id="ZCC0vsF5aBIYuFwtmIaz-58" value="" style="group" vertex="1" connectable="0" parent="qyVIdLSaxjaKyciel1az-29">
          <mxGeometry x="103.10000000000002" y="-0.22000000000002728" width="200" height="150" as="geometry" />
        </mxCell>
        <mxCell id="qyVIdLSaxjaKyciel1az-13" value="&lt;br&gt;Persona Ficta" style="triangle;whiteSpace=wrap;html=1;shadow=0;strokeColor=#FF0000;fillColor=none;direction=south;fontSize=10;fontColor=#FF0000;" parent="ZCC0vsF5aBIYuFwtmIaz-58" vertex="1">
          <mxGeometry width="200.00000000000003" height="150" as="geometry" />
        </mxCell>
        <mxCell id="qyVIdLSaxjaKyciel1az-14" value="" style="pointerEvents=1;shadow=0;dashed=0;html=1;strokeColor=none;fillColor=#CC0000;labelPosition=center;verticalLabelPosition=bottom;verticalAlign=top;align=center;outlineConnect=0;shape=mxgraph.veeam2.smb_business;fontSize=10;fontColor=#FF0000;" parent="ZCC0vsF5aBIYuFwtmIaz-58" vertex="1">
          <mxGeometry x="25.508937178980545" y="3.2769620253163794" width="30.97589885420783" height="30.37974683544304" as="geometry" />
        </mxCell>
        <mxCell id="qyVIdLSaxjaKyciel1az-15" value="" style="pointerEvents=1;shadow=0;dashed=0;html=1;strokeColor=none;fillColor=#CC0000;labelPosition=center;verticalLabelPosition=bottom;verticalAlign=top;align=center;outlineConnect=0;shape=mxgraph.veeam2.enterprise_business;fontSize=10;fontColor=#FF0000;" parent="ZCC0vsF5aBIYuFwtmIaz-58" vertex="1">
          <mxGeometry x="80.51999999999998" y="2.5174683544304344" width="34.76886606084552" height="31.89873417721519" as="geometry" />
        </mxCell>
        <mxCell id="qyVIdLSaxjaKyciel1az-16" value="" style="outlineConnect=0;fontColor=#FF0000;gradientColor=none;fillColor=#C7131F;strokeColor=none;dashed=0;verticalLabelPosition=bottom;verticalAlign=top;align=center;html=1;fontSize=10;fontStyle=0;aspect=fixed;pointerEvents=1;shape=mxgraph.aws4.organizations_organizational_unit;shadow=0;" parent="ZCC0vsF5aBIYuFwtmIaz-58" vertex="1">
          <mxGeometry x="82.53999999999985" y="90" width="34.92" height="30" as="geometry" />
        </mxCell>
        <mxCell id="qyVIdLSaxjaKyciel1az-17" value="" style="shape=mxgraph.signs.travel.bank;html=1;fillColor=#CC0000;strokeColor=none;verticalLabelPosition=bottom;verticalAlign=top;align=center;fontColor=#FF0000;fontSize=10;" parent="ZCC0vsF5aBIYuFwtmIaz-58" vertex="1">
          <mxGeometry x="79.45684840212755" y="39.99640357408782" width="38.00803915742316" height="36.72375279225615" as="geometry" />
        </mxCell>
        <mxCell id="qyVIdLSaxjaKyciel1az-18" value="" style="fontColor=#FF0000;verticalAlign=top;verticalLabelPosition=bottom;labelPosition=center;align=center;html=1;outlineConnect=0;fillColor=#CC0000;strokeColor=none;gradientDirection=north;strokeWidth=2;shape=mxgraph.networks.business_center;shadow=0;fontSize=10;" parent="ZCC0vsF5aBIYuFwtmIaz-58" vertex="1">
          <mxGeometry x="136.64287633346498" y="0.998481012658317" width="34.76886606084552" height="33.41772151898734" as="geometry" />
        </mxCell>
        <mxCell id="ZCC0vsF5aBIYuFwtmIaz-62" value="" style="group" vertex="1" connectable="0" parent="CSKR0XeA0UPNSw7-Kzpn-4">
          <mxGeometry x="307.29999999999995" y="304" width="304.70000000000005" height="149.9946390598102" as="geometry" />
        </mxCell>
        <mxCell id="qyVIdLSaxjaKyciel1az-20" value="&lt;br&gt;Physical&lt;br&gt;&amp;nbsp;&amp;nbsp;&lt;br&gt;&lt;br&gt;&lt;br&gt;Object" style="triangle;whiteSpace=wrap;html=1;shadow=0;strokeColor=#FF0000;fillColor=none;direction=north;fontSize=10;fontColor=#FF0000;" parent="ZCC0vsF5aBIYuFwtmIaz-62" vertex="1">
          <mxGeometry width="200" height="149.99463905981025" as="geometry" />
        </mxCell>
        <mxCell id="qyVIdLSaxjaKyciel1az-21" value="" style="pointerEvents=1;shadow=0;dashed=0;html=1;strokeColor=none;fillColor=#CC0000;labelPosition=center;verticalLabelPosition=bottom;verticalAlign=top;outlineConnect=0;align=center;shape=mxgraph.office.devices.phone_voip;fontColor=#FF0000;fontSize=10;" parent="ZCC0vsF5aBIYuFwtmIaz-62" vertex="1">
          <mxGeometry x="24.691155294186842" y="114.82645486981846" width="31.608060055314105" height="30.378661075404608" as="geometry" />
        </mxCell>
        <mxCell id="qyVIdLSaxjaKyciel1az-23" value="" style="pointerEvents=1;shadow=0;dashed=0;html=1;strokeColor=none;fillColor=#CC0000;labelPosition=center;verticalLabelPosition=bottom;verticalAlign=top;align=center;outlineConnect=0;shape=mxgraph.veeam.2d.esx_esxi;fontColor=#FF0000;fontSize=10;" parent="ZCC0vsF5aBIYuFwtmIaz-62" vertex="1">
          <mxGeometry x="91" y="116.91078540752073" width="15.8" height="26.21" as="geometry" />
        </mxCell>
        <mxCell id="qyVIdLSaxjaKyciel1az-25" value="" style="outlineConnect=0;dashed=0;verticalLabelPosition=bottom;verticalAlign=top;align=center;html=1;shape=mxgraph.aws3.alexa_enabled_device;fillColor=#CC0000;strokeColor=none;fontColor=#FF0000;fontSize=10;" parent="ZCC0vsF5aBIYuFwtmIaz-62" vertex="1">
          <mxGeometry x="142.9311829185864" y="112.82645486981846" width="31.608060055314105" height="30.378661075404608" as="geometry" />
        </mxCell>
        <mxCell id="qyVIdLSaxjaKyciel1az-26" value="" style="pointerEvents=1;shadow=0;dashed=0;html=1;strokeColor=none;fillColor=#CC0000;labelPosition=center;verticalLabelPosition=bottom;verticalAlign=top;outlineConnect=0;align=center;shape=mxgraph.office.devices.cell_phone_generic;fontColor=#FF0000;fontSize=10;" parent="ZCC0vsF5aBIYuFwtmIaz-62" vertex="1">
          <mxGeometry x="91.08425210040127" y="72.15378750424406" width="15.804030027657053" height="22.783995806553456" as="geometry" />
        </mxCell>
        <mxCell id="qyVIdLSaxjaKyciel1az-27" value="" style="html=1;aspect=fixed;strokeColor=none;shadow=0;align=center;verticalAlign=top;fillColor=#CC0000;shape=mxgraph.gcp2.memory_card;fontColor=#FF0000;fontSize=10;" parent="ZCC0vsF5aBIYuFwtmIaz-62" vertex="1">
          <mxGeometry x="56.3" y="72.15" width="16.6" height="17.85" as="geometry" />
        </mxCell>
        <mxCell id="qyVIdLSaxjaKyciel1az-24" value="" style="fontColor=#FF0000;verticalAlign=top;verticalLabelPosition=bottom;labelPosition=center;align=center;html=1;outlineConnect=0;fillColor=#CC0000;strokeColor=none;gradientDirection=north;strokeWidth=2;shape=mxgraph.networks.security_camera;shadow=0;fontSize=10;" parent="ZCC0vsF5aBIYuFwtmIaz-62" vertex="1">
          <mxGeometry x="85.36000000000001" y="19" width="33.64" height="31.64" as="geometry" />
        </mxCell>
        <mxCell id="ZCC0vsF5aBIYuFwtmIaz-137" value="" style="triangle;whiteSpace=wrap;html=1;shadow=0;strokeColor=#005700;fillColor=none;direction=south;fontColor=#006600;" vertex="1" parent="ZCC0vsF5aBIYuFwtmIaz-62">
          <mxGeometry x="102.70000000000005" y="-0.009999999999990905" width="200" height="150" as="geometry" />
        </mxCell>
        <mxCell id="qyVIdLSaxjaKyciel1az-22" value="" style="pointerEvents=1;shadow=0;dashed=0;html=1;strokeColor=none;fillColor=#CC0000;labelPosition=center;verticalLabelPosition=bottom;verticalAlign=top;outlineConnect=0;align=center;shape=mxgraph.office.devices.nic;fontColor=#FF0000;fontSize=10;" parent="ZCC0vsF5aBIYuFwtmIaz-62" vertex="1">
          <mxGeometry x="124.69907546424326" y="73.54559622589795" width="25" height="20" as="geometry" />
        </mxCell>
        <mxCell id="ZCC0vsF5aBIYuFwtmIaz-263" value="Device Profile" style="shape=image;html=1;verticalAlign=bottom;verticalLabelPosition=top;labelBackgroundColor=none;imageAspect=0;aspect=fixed;image=https://cdn2.iconfinder.com/data/icons/gnomeicontheme/48x48/stock/generic/stock_id.png;fillColor=#006600;fontSize=4;fontColor=#CC0000;labelPosition=center;align=center;" vertex="1" parent="ZCC0vsF5aBIYuFwtmIaz-62">
          <mxGeometry x="189.00000000000003" y="12.599999999999994" width="22.7" height="22.7" as="geometry" />
        </mxCell>
        <mxCell id="ZCC0vsF5aBIYuFwtmIaz-242" value="License" style="pointerEvents=1;shadow=0;dashed=0;html=1;strokeColor=none;fillColor=#008a00;labelPosition=center;verticalLabelPosition=top;verticalAlign=bottom;outlineConnect=0;align=center;shape=mxgraph.office.security.token;labelBackgroundColor=none;fontSize=4;fontColor=#CC0000;" vertex="1" parent="ZCC0vsF5aBIYuFwtmIaz-62">
          <mxGeometry x="244.70000000000005" y="12.59853185757251" width="18.01" height="21.496286463271808" as="geometry" />
        </mxCell>
        <mxCell id="qyVIdLSaxjaKyciel1az-162" value="Device Location" style="shape=image;html=1;verticalAlign=bottom;verticalLabelPosition=top;labelBackgroundColor=none;imageAspect=0;aspect=fixed;image=https://cdn0.iconfinder.com/data/icons/simpline-mix/64/simpline_8-128.png;fontSize=4;fontColor=#CC0000;labelPosition=center;align=center;" parent="ZCC0vsF5aBIYuFwtmIaz-62" vertex="1">
          <mxGeometry x="134.70000000000005" y="10" width="27.9" height="27.9" as="geometry" />
        </mxCell>
        <mxCell id="qyVIdLSaxjaKyciel1az-90" value="&lt;font style=&quot;font-size: 4px&quot;&gt;Role&lt;/font&gt;" style="outlineConnect=0;dashed=0;verticalLabelPosition=top;verticalAlign=bottom;align=center;html=1;shape=mxgraph.aws3.role;fillColor=#759C3E;gradientColor=none;shadow=0;strokeColor=#FF0000;labelBackgroundColor=none;fontColor=#CC0000;fontSize=8;labelPosition=center;" parent="CSKR0XeA0UPNSw7-Kzpn-4" vertex="1">
          <mxGeometry x="87.5" y="184" width="25" height="20" as="geometry" />
        </mxCell>
        <mxCell id="qyVIdLSaxjaKyciel1az-88" value="&lt;font color=&quot;#cc0000&quot;&gt;Claims&lt;/font&gt;" style="outlineConnect=0;fontColor=#ffffff;fillColor=#008a00;strokeColor=none;dashed=0;verticalLabelPosition=top;verticalAlign=bottom;align=center;html=1;fontSize=4;fontStyle=0;aspect=fixed;pointerEvents=1;shape=mxgraph.aws4.policy;shadow=0;labelBackgroundColor=none;labelPosition=center;" parent="CSKR0XeA0UPNSw7-Kzpn-4" vertex="1">
          <mxGeometry x="122" y="234" width="25.61" height="22" as="geometry" />
        </mxCell>
        <mxCell id="qyVIdLSaxjaKyciel1az-515" value="&lt;font style=&quot;font-size: 4px&quot;&gt;Preferences&lt;br&gt;&lt;/font&gt;" style="outlineConnect=0;fontColor=#CC0000;fillColor=#008a00;strokeColor=none;dashed=0;verticalLabelPosition=top;verticalAlign=bottom;align=center;html=1;fontSize=8;fontStyle=0;aspect=fixed;pointerEvents=1;shape=mxgraph.aws4.permissions;shadow=0;labelBackgroundColor=none;labelPosition=center;" parent="CSKR0XeA0UPNSw7-Kzpn-4" vertex="1">
          <mxGeometry x="92.50000000000011" y="274" width="15" height="20" as="geometry" />
        </mxCell>
        <mxCell id="qyVIdLSaxjaKyciel1az-7" value="Natural&lt;br&gt;Person" style="triangle;whiteSpace=wrap;html=1;shadow=0;strokeColor=#FF0000;fillColor=none;direction=north;fontSize=10;fontColor=#FF0000;" parent="CSKR0XeA0UPNSw7-Kzpn-4" vertex="1">
          <mxGeometry x="205.10000000000008" y="152" width="200" height="150" as="geometry" />
        </mxCell>
        <mxCell id="qyVIdLSaxjaKyciel1az-8" value="" style="verticalAlign=top;verticalLabelPosition=bottom;labelPosition=center;align=center;html=1;outlineConnect=0;fillColor=#CC0000;strokeColor=none;gradientDirection=north;strokeWidth=2;shape=mxgraph.networks.users;fontColor=#FF0000;fontSize=10;" parent="CSKR0XeA0UPNSw7-Kzpn-4" vertex="1">
          <mxGeometry x="287.901659423153" y="256.43037974683534" width="36.41248518372185" height="38.50632911392405" as="geometry" />
        </mxCell>
        <mxCell id="qyVIdLSaxjaKyciel1az-9" value="" style="verticalAlign=top;verticalLabelPosition=bottom;labelPosition=center;align=center;html=1;outlineConnect=0;fillColor=#CC0000;strokeColor=none;gradientDirection=north;strokeWidth=2;shape=mxgraph.networks.user_female;fontColor=#FF0000;fontSize=10;" parent="CSKR0XeA0UPNSw7-Kzpn-4" vertex="1">
          <mxGeometry x="329.8929672066379" y="215.41772151898738" width="15.804030027657053" height="37.9746835443038" as="geometry" />
        </mxCell>
        <mxCell id="qyVIdLSaxjaKyciel1az-10" value="" style="verticalAlign=top;verticalLabelPosition=bottom;labelPosition=center;align=center;html=1;outlineConnect=0;fillColor=#CC0000;strokeColor=none;gradientDirection=north;strokeWidth=2;shape=mxgraph.networks.user_male;fontColor=#FF0000;fontSize=10;" parent="CSKR0XeA0UPNSw7-Kzpn-4" vertex="1">
          <mxGeometry x="264.6697352824971" y="215.41772151898738" width="15.804030027657053" height="37.9746835443038" as="geometry" />
        </mxCell>
        <mxCell id="qyVIdLSaxjaKyciel1az-11" value="" style="pointerEvents=1;shadow=0;dashed=0;html=1;strokeColor=none;fillColor=#CC0000;labelPosition=center;verticalLabelPosition=bottom;verticalAlign=top;outlineConnect=0;align=center;shape=mxgraph.office.users.call_center_agent;fontColor=#FF0000;fontSize=10;" parent="CSKR0XeA0UPNSw7-Kzpn-4" vertex="1">
          <mxGeometry x="295.04508099565396" y="174.00278481012657" width="22.125642038719874" height="25.82278481012658" as="geometry" />
        </mxCell>
        <mxCell id="ZCC0vsF5aBIYuFwtmIaz-133" value="" style="triangle;whiteSpace=wrap;html=1;shadow=0;strokeColor=#005700;fillColor=none;direction=south;fontColor=#006600;" vertex="1" parent="CSKR0XeA0UPNSw7-Kzpn-4">
          <mxGeometry x="308" y="152" width="200" height="150" as="geometry" />
        </mxCell>
        <mxCell id="qyVIdLSaxjaKyciel1az-4" value="Organizations &lt;br style=&quot;font-size: 4px;&quot;&gt;Account" style="outlineConnect=0;fontColor=#CC0000;fillColor=#008a00;strokeColor=none;dashed=0;verticalLabelPosition=top;verticalAlign=bottom;align=center;html=1;fontSize=4;fontStyle=0;aspect=fixed;pointerEvents=1;shape=mxgraph.aws4.organizations_account;shadow=0;labelBackgroundColor=none;labelPosition=center;" parent="CSKR0XeA0UPNSw7-Kzpn-4" vertex="1">
          <mxGeometry x="392.5300000000001" y="184.57999999999998" width="34.34" height="45.77" as="geometry" />
        </mxCell>
        <mxCell id="qyVIdLSaxjaKyciel1az-511" value="Tax Identification&lt;br&gt;Number" style="shape=image;html=1;verticalAlign=bottom;verticalLabelPosition=top;labelBackgroundColor=none;imageAspect=0;aspect=fixed;image=https://cdn3.iconfinder.com/data/icons/fintech-icon/128/13_Tax-128.png;strokeColor=#006600;strokeWidth=1;fillColor=none;fontSize=4;fontColor=#CC0000;align=center;labelPosition=center;" parent="CSKR0XeA0UPNSw7-Kzpn-4" vertex="1">
          <mxGeometry x="392.5300000000001" y="246.06" width="32.05" height="32.05" as="geometry" />
        </mxCell>
        <mxCell id="ZCC0vsF5aBIYuFwtmIaz-232" value="Purchase&lt;br&gt;History" style="pointerEvents=1;shadow=0;dashed=0;html=1;strokeColor=none;labelPosition=center;verticalLabelPosition=bottom;verticalAlign=top;align=center;fillColor=#008a00;shape=mxgraph.mscae.oms.log_search;labelBackgroundColor=none;fontSize=4;fontColor=#CC0000;" vertex="1" parent="CSKR0XeA0UPNSw7-Kzpn-4">
          <mxGeometry x="252" y="164" width="20" height="20" as="geometry" />
        </mxCell>
        <mxCell id="ZCC0vsF5aBIYuFwtmIaz-221" value="********" style="strokeWidth=1;html=1;shadow=0;dashed=0;shape=mxgraph.ios.iTextInput;strokeColor=#005700;align=left;buttonText=;fontSize=4;labelBackgroundColor=none;fillColor=none;fontColor=#CC0000;" vertex="1" parent="CSKR0XeA0UPNSw7-Kzpn-4">
          <mxGeometry x="186.10000000000002" y="257.09000000000003" width="33.5" height="10" as="geometry" />
        </mxCell>
        <mxCell id="ZCC0vsF5aBIYuFwtmIaz-222" value="Adam Smith" style="rounded=1;arcSize=9;align=left;spacingLeft=5;strokeColor=#006600;html=1;strokeWidth=1;fontSize=4;labelBackgroundColor=none;fillColor=none;fontColor=#CC0000;" vertex="1" parent="CSKR0XeA0UPNSw7-Kzpn-4">
          <mxGeometry x="186.0999999999999" y="244.72000000000003" width="33.8" height="10" as="geometry" />
        </mxCell>
        <mxCell id="ZCC0vsF5aBIYuFwtmIaz-223" value="&lt;font style=&quot;font-size: 4px&quot;&gt;User Name&lt;/font&gt;" style="fillColor=none;strokeColor=none;html=1;fontSize=4;fontStyle=0;align=left;fontColor=#CC0000;fontStyle=1;fontSize=11;labelBackgroundColor=none;strokeWidth=1;" vertex="1" parent="CSKR0XeA0UPNSw7-Kzpn-4">
          <mxGeometry x="186.10000000000002" y="230.35000000000002" width="30" height="14.12" as="geometry" />
        </mxCell>
        <mxCell id="ZCC0vsF5aBIYuFwtmIaz-233" value="Search &lt;br&gt;History" style="pointerEvents=1;shadow=0;dashed=0;html=1;strokeColor=none;labelPosition=center;verticalLabelPosition=bottom;verticalAlign=top;align=center;fillColor=#008a00;shape=mxgraph.mscae.oms.log_search;labelBackgroundColor=none;fontSize=4;fontColor=#CC0000;" vertex="1" parent="CSKR0XeA0UPNSw7-Kzpn-4">
          <mxGeometry x="132" y="164" width="20" height="20" as="geometry" />
        </mxCell>
        <mxCell id="ZCC0vsF5aBIYuFwtmIaz-256" value="Article of &lt;br&gt;Incorporation" style="points=[[0.015,0.015,0],[0.25,0,0],[0.5,0,0],[0.75,0,0],[0.985,0.015,0],[1,0.22,0],[1,0.44,0],[1,0.67,0],[0.985,0.89,0],[0,0.22,0],[0,0.44,0],[0,0.67,0],[0.015,0.89,0],[0.25,0.91,0],[0.5,0.91,0],[0.785,0.955,0]];verticalLabelPosition=bottom;html=1;verticalAlign=top;aspect=fixed;align=center;pointerEvents=1;shape=mxgraph.cisco19.x509_certificate;fillColor=#006600;strokeColor=none;labelBackgroundColor=none;fontSize=4;fontColor=#CC0000;" vertex="1" parent="CSKR0XeA0UPNSw7-Kzpn-4">
          <mxGeometry x="452.0000000000001" y="155.58" width="28.42" height="27" as="geometry" />
        </mxCell>
        <mxCell id="ZCC0vsF5aBIYuFwtmIaz-261" value="&lt;font style=&quot;font-size: 4px&quot;&gt;Org Profile&lt;br style=&quot;font-size: 4px&quot;&gt;&lt;/font&gt;" style="html=1;strokeColor=none;fillColor=#006600;labelPosition=center;verticalLabelPosition=middle;verticalAlign=top;align=center;fontSize=4;outlineConnect=0;spacingTop=-6;fontColor=#FFFFFF;shape=mxgraph.sitemap.contact;shadow=0;labelBackgroundColor=none;" vertex="1" parent="CSKR0XeA0UPNSw7-Kzpn-4">
          <mxGeometry x="333" y="154.58" width="40" height="30" as="geometry" />
        </mxCell>
        <mxCell id="CSKR0XeA0UPNSw7-Kzpn-1" value="" style="triangle;whiteSpace=wrap;html=1;shadow=0;strokeColor=#005700;fillColor=none;direction=south;fontColor=#006600;flipV=1;" vertex="1" parent="CSKR0XeA0UPNSw7-Kzpn-4">
          <mxGeometry x="411" y="152" width="200" height="150" as="geometry" />
        </mxCell>
      </root>
    </mxGraphModel>
  </diagram>
  <diagram name="Page-2" id="4QA8itZXw5ID19nThBdj">
    <mxGraphModel dx="556" dy="-510" grid="0" gridSize="10" guides="1" tooltips="1" connect="1" arrows="1" fold="1" page="1" pageScale="1" pageWidth="1100" pageHeight="850" math="0" shadow="0">
      <root>
        <mxCell id="ZZJeUgKzoIVRIMGufOQw-0" />
        <mxCell id="ZZJeUgKzoIVRIMGufOQw-1" parent="ZZJeUgKzoIVRIMGufOQw-0" />
        <mxCell id="_Ru22wIDDWSlNjg7epXI-0" value="" style="group" vertex="1" connectable="0" parent="ZZJeUgKzoIVRIMGufOQw-1">
          <mxGeometry x="350.48" y="1330" width="405.29999999999995" height="302" as="geometry" />
        </mxCell>
        <mxCell id="_Ru22wIDDWSlNjg7epXI-1" value="" style="group" vertex="1" connectable="0" parent="_Ru22wIDDWSlNjg7epXI-0">
          <mxGeometry width="405.29999999999995" height="302" as="geometry" />
        </mxCell>
        <mxCell id="_Ru22wIDDWSlNjg7epXI-2" value="" style="group" vertex="1" connectable="0" parent="_Ru22wIDDWSlNjg7epXI-1">
          <mxGeometry width="405.29999999999995" height="302" as="geometry" />
        </mxCell>
        <mxCell id="_Ru22wIDDWSlNjg7epXI-3" value="" style="group" vertex="1" connectable="0" parent="_Ru22wIDDWSlNjg7epXI-2">
          <mxGeometry width="405.29999999999995" height="302" as="geometry" />
        </mxCell>
        <mxCell id="_Ru22wIDDWSlNjg7epXI-4" value="" style="group;fontSize=10;fontColor=#FF0000;" vertex="1" connectable="0" parent="_Ru22wIDDWSlNjg7epXI-3">
          <mxGeometry y="152" width="303.1" height="150" as="geometry" />
        </mxCell>
        <mxCell id="_Ru22wIDDWSlNjg7epXI-5" value="Software&lt;br&gt;&lt;br&gt;&lt;br&gt;Object" style="triangle;whiteSpace=wrap;html=1;shadow=0;strokeColor=#FF0000;fillColor=none;direction=north;fontSize=10;fontColor=#FF0000;" vertex="1" parent="_Ru22wIDDWSlNjg7epXI-4">
          <mxGeometry x="1" width="200" height="150" as="geometry" />
        </mxCell>
        <mxCell id="_Ru22wIDDWSlNjg7epXI-6" value="" style="pointerEvents=1;shadow=0;dashed=0;html=1;strokeColor=none;fillColor=#CC0000;labelPosition=center;verticalLabelPosition=bottom;verticalAlign=top;outlineConnect=0;align=center;shape=mxgraph.office.concepts.web_services;fontColor=#FF0000;fontSize=10;" vertex="1" parent="_Ru22wIDDWSlNjg7epXI-4">
          <mxGeometry x="82.60766495456333" y="112.40506329113924" width="33.18846305807981" height="30.37974683544304" as="geometry" />
        </mxCell>
        <mxCell id="_Ru22wIDDWSlNjg7epXI-7" value="" style="html=1;dashed=0;whitespace=wrap;fillColor=#CC0000;strokeColor=none;points=[[0.005,0.63,0],[0.1,0.2,0],[0.9,0.2,0],[0.5,0,0],[0.995,0.63,0],[0.72,0.99,0],[0.5,1,0],[0.28,0.99,0]];shape=mxgraph.kubernetes.icon;prIcon=api;shadow=0;fontColor=#FF0000;fontSize=10;" vertex="1" parent="_Ru22wIDDWSlNjg7epXI-4">
          <mxGeometry x="23.342552350849438" y="112.40506329113924" width="31.608060055314105" height="30.37974683544304" as="geometry" />
        </mxCell>
        <mxCell id="_Ru22wIDDWSlNjg7epXI-8" value="" style="aspect=fixed;pointerEvents=1;shadow=0;dashed=0;html=1;strokeColor=none;labelPosition=center;verticalLabelPosition=bottom;verticalAlign=top;align=center;shape=mxgraph.mscae.enterprise.website_generic;fillColor=#CC0000;fontColor=#FF0000;fontSize=10;" vertex="1" parent="_Ru22wIDDWSlNjg7epXI-4">
          <mxGeometry x="140" y="112.41" width="35.93" height="31.61" as="geometry" />
        </mxCell>
        <mxCell id="_Ru22wIDDWSlNjg7epXI-9" value="" style="dashed=0;aspect=fixed;verticalLabelPosition=bottom;verticalAlign=top;align=center;shape=mxgraph.gmdl.chat;strokeColor=none;fillColor=#CC0000;shadow=0;fontColor=#FF0000;fontSize=10;" vertex="1" parent="_Ru22wIDDWSlNjg7epXI-4">
          <mxGeometry x="89.99806795732908" y="23.00075949367089" width="20" height="20" as="geometry" />
        </mxCell>
        <mxCell id="_Ru22wIDDWSlNjg7epXI-10" value="" style="shape=image;html=1;verticalAlign=top;verticalLabelPosition=bottom;labelBackgroundColor=#ffffff;imageAspect=0;aspect=fixed;image=https://cdn2.iconfinder.com/data/icons/botcons/100/android-bot-round-happy-eyes-virus-red-128.png;strokeWidth=1;fillColor=none;fontSize=10;fontColor=#FF0000;" vertex="1" parent="_Ru22wIDDWSlNjg7epXI-4">
          <mxGeometry x="110.00000000000006" y="63" width="28" height="28" as="geometry" />
        </mxCell>
        <mxCell id="_Ru22wIDDWSlNjg7epXI-11" value="" style="outlineConnect=0;dashed=0;verticalLabelPosition=bottom;verticalAlign=top;align=center;html=1;shape=mxgraph.aws3.agent;fillColor=#CC0000;labelBackgroundColor=none;strokeWidth=1;fontSize=10;fontColor=#FF0000;strokeColor=none;" vertex="1" parent="_Ru22wIDDWSlNjg7epXI-4">
          <mxGeometry x="63.610000000000056" y="67" width="19" height="20" as="geometry" />
        </mxCell>
        <mxCell id="_Ru22wIDDWSlNjg7epXI-12" value="" style="group" vertex="1" connectable="0" parent="_Ru22wIDDWSlNjg7epXI-4">
          <mxGeometry x="103.10000000000002" y="-0.22000000000002728" width="200" height="150" as="geometry" />
        </mxCell>
        <mxCell id="_Ru22wIDDWSlNjg7epXI-13" value="&lt;br&gt;Persona Ficta" style="triangle;whiteSpace=wrap;html=1;shadow=0;strokeColor=#FF0000;fillColor=none;direction=south;fontSize=10;fontColor=#FF0000;" vertex="1" parent="_Ru22wIDDWSlNjg7epXI-12">
          <mxGeometry width="200.00000000000003" height="150" as="geometry" />
        </mxCell>
        <mxCell id="_Ru22wIDDWSlNjg7epXI-14" value="" style="pointerEvents=1;shadow=0;dashed=0;html=1;strokeColor=none;fillColor=#CC0000;labelPosition=center;verticalLabelPosition=bottom;verticalAlign=top;align=center;outlineConnect=0;shape=mxgraph.veeam2.smb_business;fontSize=10;fontColor=#FF0000;" vertex="1" parent="_Ru22wIDDWSlNjg7epXI-12">
          <mxGeometry x="25.508937178980545" y="3.2769620253163794" width="30.97589885420783" height="30.37974683544304" as="geometry" />
        </mxCell>
        <mxCell id="_Ru22wIDDWSlNjg7epXI-15" value="" style="pointerEvents=1;shadow=0;dashed=0;html=1;strokeColor=none;fillColor=#CC0000;labelPosition=center;verticalLabelPosition=bottom;verticalAlign=top;align=center;outlineConnect=0;shape=mxgraph.veeam2.enterprise_business;fontSize=10;fontColor=#FF0000;" vertex="1" parent="_Ru22wIDDWSlNjg7epXI-12">
          <mxGeometry x="80.51999999999998" y="2.5174683544304344" width="34.76886606084552" height="31.89873417721519" as="geometry" />
        </mxCell>
        <mxCell id="_Ru22wIDDWSlNjg7epXI-16" value="" style="outlineConnect=0;fontColor=#FF0000;gradientColor=none;fillColor=#C7131F;strokeColor=none;dashed=0;verticalLabelPosition=bottom;verticalAlign=top;align=center;html=1;fontSize=10;fontStyle=0;aspect=fixed;pointerEvents=1;shape=mxgraph.aws4.organizations_organizational_unit;shadow=0;" vertex="1" parent="_Ru22wIDDWSlNjg7epXI-12">
          <mxGeometry x="82.53999999999985" y="90" width="34.92" height="30" as="geometry" />
        </mxCell>
        <mxCell id="_Ru22wIDDWSlNjg7epXI-17" value="" style="shape=mxgraph.signs.travel.bank;html=1;fillColor=#CC0000;strokeColor=none;verticalLabelPosition=bottom;verticalAlign=top;align=center;fontColor=#FF0000;fontSize=10;" vertex="1" parent="_Ru22wIDDWSlNjg7epXI-12">
          <mxGeometry x="79.45684840212755" y="39.99640357408782" width="38.00803915742316" height="36.72375279225615" as="geometry" />
        </mxCell>
        <mxCell id="_Ru22wIDDWSlNjg7epXI-18" value="" style="fontColor=#FF0000;verticalAlign=top;verticalLabelPosition=bottom;labelPosition=center;align=center;html=1;outlineConnect=0;fillColor=#CC0000;strokeColor=none;gradientDirection=north;strokeWidth=2;shape=mxgraph.networks.business_center;shadow=0;fontSize=10;" vertex="1" parent="_Ru22wIDDWSlNjg7epXI-12">
          <mxGeometry x="136.64287633346498" y="0.998481012658317" width="34.76886606084552" height="33.41772151898734" as="geometry" />
        </mxCell>
        <mxCell id="_Ru22wIDDWSlNjg7epXI-19" value="" style="group" vertex="1" connectable="0" parent="_Ru22wIDDWSlNjg7epXI-3">
          <mxGeometry x="103.10000000000008" width="200.00000000000006" height="150" as="geometry" />
        </mxCell>
        <mxCell id="_Ru22wIDDWSlNjg7epXI-20" value="Natural&lt;br&gt;Person" style="triangle;whiteSpace=wrap;html=1;shadow=0;strokeColor=#FF0000;fillColor=none;direction=north;fontSize=10;fontColor=#FF0000;" vertex="1" parent="_Ru22wIDDWSlNjg7epXI-19">
          <mxGeometry width="200" height="150" as="geometry" />
        </mxCell>
        <mxCell id="_Ru22wIDDWSlNjg7epXI-21" value="" style="verticalAlign=top;verticalLabelPosition=bottom;labelPosition=center;align=center;html=1;outlineConnect=0;fillColor=#CC0000;strokeColor=none;gradientDirection=north;strokeWidth=2;shape=mxgraph.networks.users;fontColor=#FF0000;fontSize=10;" vertex="1" parent="_Ru22wIDDWSlNjg7epXI-19">
          <mxGeometry x="82.8016594231529" y="104.43037974683534" width="36.41248518372185" height="38.50632911392405" as="geometry" />
        </mxCell>
        <mxCell id="_Ru22wIDDWSlNjg7epXI-22" value="" style="verticalAlign=top;verticalLabelPosition=bottom;labelPosition=center;align=center;html=1;outlineConnect=0;fillColor=#CC0000;strokeColor=none;gradientDirection=north;strokeWidth=2;shape=mxgraph.networks.user_female;fontColor=#FF0000;fontSize=10;" vertex="1" parent="_Ru22wIDDWSlNjg7epXI-19">
          <mxGeometry x="124.7929672066378" y="63.41772151898738" width="15.804030027657053" height="37.9746835443038" as="geometry" />
        </mxCell>
        <mxCell id="_Ru22wIDDWSlNjg7epXI-23" value="" style="verticalAlign=top;verticalLabelPosition=bottom;labelPosition=center;align=center;html=1;outlineConnect=0;fillColor=#CC0000;strokeColor=none;gradientDirection=north;strokeWidth=2;shape=mxgraph.networks.user_male;fontColor=#FF0000;fontSize=10;" vertex="1" parent="_Ru22wIDDWSlNjg7epXI-19">
          <mxGeometry x="59.56973528249699" y="63.41772151898738" width="15.804030027657053" height="37.9746835443038" as="geometry" />
        </mxCell>
        <mxCell id="_Ru22wIDDWSlNjg7epXI-24" value="" style="pointerEvents=1;shadow=0;dashed=0;html=1;strokeColor=none;fillColor=#CC0000;labelPosition=center;verticalLabelPosition=bottom;verticalAlign=top;outlineConnect=0;align=center;shape=mxgraph.office.users.call_center_agent;fontColor=#FF0000;fontSize=10;" vertex="1" parent="_Ru22wIDDWSlNjg7epXI-19">
          <mxGeometry x="89.94508099565388" y="25.822784810126564" width="22.125642038719874" height="25.82278481012658" as="geometry" />
        </mxCell>
        <mxCell id="_Ru22wIDDWSlNjg7epXI-25" value="" style="group" vertex="1" connectable="0" parent="_Ru22wIDDWSlNjg7epXI-3">
          <mxGeometry x="205.29999999999995" y="152" width="200" height="149.9946390598102" as="geometry" />
        </mxCell>
        <mxCell id="_Ru22wIDDWSlNjg7epXI-26" value="&lt;br&gt;Physical&lt;br&gt;&amp;nbsp;&amp;nbsp;&lt;br&gt;&lt;br&gt;&lt;br&gt;Object" style="triangle;whiteSpace=wrap;html=1;shadow=0;strokeColor=#FF0000;fillColor=none;direction=north;fontSize=10;fontColor=#FF0000;" vertex="1" parent="_Ru22wIDDWSlNjg7epXI-25">
          <mxGeometry width="200" height="149.99463905981025" as="geometry" />
        </mxCell>
        <mxCell id="_Ru22wIDDWSlNjg7epXI-27" value="" style="pointerEvents=1;shadow=0;dashed=0;html=1;strokeColor=none;fillColor=#CC0000;labelPosition=center;verticalLabelPosition=bottom;verticalAlign=top;outlineConnect=0;align=center;shape=mxgraph.office.devices.phone_voip;fontColor=#FF0000;fontSize=10;" vertex="1" parent="_Ru22wIDDWSlNjg7epXI-25">
          <mxGeometry x="24.691155294186842" y="114.82645486981846" width="31.608060055314105" height="30.378661075404608" as="geometry" />
        </mxCell>
        <mxCell id="_Ru22wIDDWSlNjg7epXI-28" value="" style="pointerEvents=1;shadow=0;dashed=0;html=1;strokeColor=none;fillColor=#CC0000;labelPosition=center;verticalLabelPosition=bottom;verticalAlign=top;align=center;outlineConnect=0;shape=mxgraph.veeam.2d.esx_esxi;fontColor=#FF0000;fontSize=10;" vertex="1" parent="_Ru22wIDDWSlNjg7epXI-25">
          <mxGeometry x="91" y="116.91078540752073" width="15.8" height="26.21" as="geometry" />
        </mxCell>
        <mxCell id="_Ru22wIDDWSlNjg7epXI-29" value="" style="outlineConnect=0;dashed=0;verticalLabelPosition=bottom;verticalAlign=top;align=center;html=1;shape=mxgraph.aws3.alexa_enabled_device;fillColor=#CC0000;strokeColor=none;fontColor=#FF0000;fontSize=10;" vertex="1" parent="_Ru22wIDDWSlNjg7epXI-25">
          <mxGeometry x="142.9311829185864" y="112.82645486981846" width="31.608060055314105" height="30.378661075404608" as="geometry" />
        </mxCell>
        <mxCell id="_Ru22wIDDWSlNjg7epXI-30" value="" style="pointerEvents=1;shadow=0;dashed=0;html=1;strokeColor=none;fillColor=#CC0000;labelPosition=center;verticalLabelPosition=bottom;verticalAlign=top;outlineConnect=0;align=center;shape=mxgraph.office.devices.cell_phone_generic;fontColor=#FF0000;fontSize=10;" vertex="1" parent="_Ru22wIDDWSlNjg7epXI-25">
          <mxGeometry x="91.08425210040127" y="72.15378750424406" width="15.804030027657053" height="22.783995806553456" as="geometry" />
        </mxCell>
        <mxCell id="_Ru22wIDDWSlNjg7epXI-31" value="" style="html=1;aspect=fixed;strokeColor=none;shadow=0;align=center;verticalAlign=top;fillColor=#CC0000;shape=mxgraph.gcp2.memory_card;fontColor=#FF0000;fontSize=10;" vertex="1" parent="_Ru22wIDDWSlNjg7epXI-25">
          <mxGeometry x="119" y="74.62" width="16.6" height="17.85" as="geometry" />
        </mxCell>
        <mxCell id="_Ru22wIDDWSlNjg7epXI-32" value="" style="fontColor=#FF0000;verticalAlign=top;verticalLabelPosition=bottom;labelPosition=center;align=center;html=1;outlineConnect=0;fillColor=#CC0000;strokeColor=none;gradientDirection=north;strokeWidth=2;shape=mxgraph.networks.security_camera;shadow=0;fontSize=10;" vertex="1" parent="_Ru22wIDDWSlNjg7epXI-25">
          <mxGeometry x="85.36000000000001" y="19" width="33.64" height="31.64" as="geometry" />
        </mxCell>
        <mxCell id="_Ru22wIDDWSlNjg7epXI-33" value="" style="pointerEvents=1;shadow=0;dashed=0;html=1;strokeColor=none;fillColor=#CC0000;labelPosition=center;verticalLabelPosition=bottom;verticalAlign=top;outlineConnect=0;align=center;shape=mxgraph.office.devices.nic;fontColor=#FF0000;fontSize=10;" vertex="1" parent="_Ru22wIDDWSlNjg7epXI-25">
          <mxGeometry x="54.29907546424329" y="73.54559622589807" width="25" height="20" as="geometry" />
        </mxCell>
      </root>
    </mxGraphModel>
  </diagram>
  <diagram id="u62hLMvxbqGbNDMvkadk" name="Page-3">
    <mxGraphModel dx="1589" dy="121" grid="1" gridSize="10" guides="1" tooltips="1" connect="1" arrows="1" fold="1" page="1" pageScale="1" pageWidth="1100" pageHeight="850" math="0" shadow="0">
      <root>
        <mxCell id="2p5MaKDDWT3B93vbVvwf-0" />
        <mxCell id="2p5MaKDDWT3B93vbVvwf-1" parent="2p5MaKDDWT3B93vbVvwf-0" />
        <mxCell id="-a1UEPuusHy5rhhuWVYW-5" value="" style="edgeStyle=none;rounded=0;orthogonalLoop=1;jettySize=auto;html=1;fontSize=4;fontColor=#CC0000;endArrow=ERmany;endFill=0;startArrow=ERmany;startFill=0;exitX=0.82;exitY=0.07;exitDx=0;exitDy=0;exitPerimeter=0;" edge="1" parent="2p5MaKDDWT3B93vbVvwf-1" source="-a1UEPuusHy5rhhuWVYW-3" target="r29z2zv_r777M4T_qhrj-0">
          <mxGeometry relative="1" as="geometry">
            <mxPoint x="995.6800000000001" y="970" as="targetPoint" />
          </mxGeometry>
        </mxCell>
        <mxCell id="bVjVruwHouxFNV10EuSH-2" value="" style="edgeStyle=none;rounded=0;orthogonalLoop=1;jettySize=auto;html=1;startArrow=ERone;startFill=0;endArrow=ERone;endFill=0;fontSize=4;fontColor=#CC0000;entryX=0;entryY=0.5;entryDx=0;entryDy=0;" edge="1" parent="2p5MaKDDWT3B93vbVvwf-1" source="-a1UEPuusHy5rhhuWVYW-3" target="bVjVruwHouxFNV10EuSH-0">
          <mxGeometry relative="1" as="geometry">
            <mxPoint x="875.6799999999998" y="1091.005" as="targetPoint" />
          </mxGeometry>
        </mxCell>
        <mxCell id="GLZ4x7t4GV3L5pPDfjEl-2" value="" style="edgeStyle=none;rounded=0;orthogonalLoop=1;jettySize=auto;html=1;startArrow=ERone;startFill=0;endArrow=ERone;endFill=0;fontSize=4;fontColor=#CC0000;entryX=0.31;entryY=0.33;entryDx=0;entryDy=0;entryPerimeter=0;" edge="1" parent="2p5MaKDDWT3B93vbVvwf-1" source="-a1UEPuusHy5rhhuWVYW-3" target="GLZ4x7t4GV3L5pPDfjEl-0">
          <mxGeometry relative="1" as="geometry">
            <mxPoint x="875.6800000000001" y="1091.005" as="targetPoint" />
          </mxGeometry>
        </mxCell>
        <mxCell id="-uztqGFY9O0J4uAVM_xP-2" value="" style="edgeStyle=none;rounded=0;orthogonalLoop=1;jettySize=auto;html=1;startArrow=ERone;startFill=0;endArrow=ERone;endFill=0;fontSize=4;fontColor=#CC0000;" edge="1" parent="2p5MaKDDWT3B93vbVvwf-1" source="-a1UEPuusHy5rhhuWVYW-3" target="-uztqGFY9O0J4uAVM_xP-0">
          <mxGeometry relative="1" as="geometry">
            <mxPoint x="705.6800000000001" y="1111.005" as="targetPoint" />
          </mxGeometry>
        </mxCell>
        <mxCell id="mysR4F37wJqWpXnFs1Cz-1" value="" style="edgeStyle=none;rounded=0;orthogonalLoop=1;jettySize=auto;html=1;startArrow=ERone;startFill=0;endArrow=ERmany;endFill=0;fontSize=4;fontColor=#CC0000;" edge="1" parent="2p5MaKDDWT3B93vbVvwf-1" source="-a1UEPuusHy5rhhuWVYW-3" target="mysR4F37wJqWpXnFs1Cz-0">
          <mxGeometry relative="1" as="geometry" />
        </mxCell>
        <mxCell id="wQ4vq4YtLCBb7i7WwyYT-1" value="" style="edgeStyle=none;rounded=0;orthogonalLoop=1;jettySize=auto;html=1;startArrow=ERone;startFill=0;endArrow=ERmany;endFill=0;fontSize=4;fontColor=#CC0000;" edge="1" parent="2p5MaKDDWT3B93vbVvwf-1" source="-a1UEPuusHy5rhhuWVYW-3" target="wQ4vq4YtLCBb7i7WwyYT-0">
          <mxGeometry relative="1" as="geometry" />
        </mxCell>
        <mxCell id="m1K5oDZ0NGYN7mKZOKgY-2" value="" style="edgeStyle=none;rounded=0;orthogonalLoop=1;jettySize=auto;html=1;startArrow=ERmany;startFill=0;endArrow=ERoneToMany;endFill=0;fontSize=4;fontColor=#CC0000;entryX=0.4;entryY=1;entryDx=0;entryDy=0;entryPerimeter=0;" edge="1" parent="2p5MaKDDWT3B93vbVvwf-1" source="-a1UEPuusHy5rhhuWVYW-3" target="jrqJTP8oPLpJsrfW2FHw-0">
          <mxGeometry relative="1" as="geometry">
            <mxPoint x="820.6799999999998" y="962.01" as="targetPoint" />
          </mxGeometry>
        </mxCell>
        <mxCell id="-a1UEPuusHy5rhhuWVYW-3" value="" style="verticalAlign=top;verticalLabelPosition=bottom;labelPosition=center;align=center;html=1;outlineConnect=0;fillColor=#CC0000;strokeColor=none;gradientDirection=north;strokeWidth=2;shape=mxgraph.networks.user_male;fontColor=#FF0000;fontSize=10;" vertex="1" parent="2p5MaKDDWT3B93vbVvwf-1">
          <mxGeometry x="785.6800000000001" y="1042.01" width="70" height="137.99" as="geometry" />
        </mxCell>
        <mxCell id="r29z2zv_r777M4T_qhrj-0" value="Home Address" style="pointerEvents=1;shadow=0;dashed=0;html=1;strokeColor=none;labelPosition=center;verticalLabelPosition=bottom;verticalAlign=top;outlineConnect=0;align=center;shape=mxgraph.office.concepts.home;fillColor=#006600;fontSize=4;fontColor=#FF0000;" vertex="1" parent="2p5MaKDDWT3B93vbVvwf-1">
          <mxGeometry x="910" y="920" width="64.31" height="60" as="geometry" />
        </mxCell>
        <mxCell id="bVjVruwHouxFNV10EuSH-0" value="Passport Number" style="shape=image;html=1;verticalAlign=top;verticalLabelPosition=bottom;labelBackgroundColor=none;imageAspect=0;aspect=fixed;image=https://cdn0.iconfinder.com/data/icons/travel-filled-line-4/64/Travel-Filled-08-128.png;strokeWidth=1;fillColor=none;fontSize=4;fontColor=#CC0000;" vertex="1" parent="2p5MaKDDWT3B93vbVvwf-1">
          <mxGeometry x="935.68" y="1071" width="80" height="80" as="geometry" />
        </mxCell>
        <mxCell id="GLZ4x7t4GV3L5pPDfjEl-0" value="Search &lt;br&gt;History" style="pointerEvents=1;shadow=0;dashed=0;html=1;strokeColor=none;labelPosition=center;verticalLabelPosition=bottom;verticalAlign=top;align=center;fillColor=#008a00;shape=mxgraph.mscae.oms.log_search;labelBackgroundColor=none;fontSize=4;fontColor=#CC0000;" vertex="1" parent="2p5MaKDDWT3B93vbVvwf-1">
          <mxGeometry x="910.0000000000001" y="1187" width="71.37" height="90" as="geometry" />
        </mxCell>
        <mxCell id="-uztqGFY9O0J4uAVM_xP-0" value="Driver&#39;s&lt;br style=&quot;font-size: 4px;&quot;&gt;Licence" style="pointerEvents=1;shadow=0;dashed=0;html=1;strokeColor=none;fillColor=#008a00;labelPosition=left;verticalLabelPosition=middle;verticalAlign=middle;outlineConnect=0;align=right;shape=mxgraph.office.concepts.contacts;fontColor=#CC0000;labelBackgroundColor=none;fontSize=4;" vertex="1" parent="2p5MaKDDWT3B93vbVvwf-1">
          <mxGeometry x="600" y="990" width="94.66" height="60" as="geometry" />
        </mxCell>
        <mxCell id="mysR4F37wJqWpXnFs1Cz-0" value="Vehicle&lt;br&gt;Registration" style="shape=image;html=1;verticalAlign=top;verticalLabelPosition=bottom;labelBackgroundColor=none;imageAspect=0;aspect=fixed;image=https://cdn4.iconfinder.com/data/icons/Free-Medical-Icons-Set/128x128/Application.png;fillColor=#006600;fontSize=4;fontColor=#CC0000;" vertex="1" parent="2p5MaKDDWT3B93vbVvwf-1">
          <mxGeometry x="791.6800000000001" y="1242" width="58" height="58" as="geometry" />
        </mxCell>
        <mxCell id="wQ4vq4YtLCBb7i7WwyYT-0" value="Credit Card Number&lt;br&gt;&lt;br&gt;" style="image;html=1;labelBackgroundColor=none;image=img/lib/clip_art/finance/Credit_Card_128x128.png;shadow=0;strokeColor=none;fillColor=#008a00;fontColor=#CC0000;fontSize=4;labelPosition=center;verticalLabelPosition=top;align=center;verticalAlign=bottom;" vertex="1" parent="2p5MaKDDWT3B93vbVvwf-1">
          <mxGeometry x="610" y="1074.01" width="120" height="73.99" as="geometry" />
        </mxCell>
        <mxCell id="m1K5oDZ0NGYN7mKZOKgY-0" value="Biometrics" style="verticalLabelPosition=middle;html=1;fillColor=#008a00;verticalAlign=middle;points=[[0.145,0.145,0],[0.8555,0.145,0],[0.855,0.855,0],[0.145,0.855,0],[0.5,0,0], [1,0.5,0], [0.5,1,0],[0,0.5,0]];pointerEvents=1;align=right;shape=mxgraph.cisco_safe.capability.identity_authorization;shadow=0;labelBackgroundColor=none;strokeColor=none;strokeWidth=1;fontSize=4;fontColor=#CC0000;labelPosition=left;" vertex="1" parent="2p5MaKDDWT3B93vbVvwf-1">
          <mxGeometry x="700" y="930" width="51.82" height="50" as="geometry" />
        </mxCell>
        <mxCell id="tMN4ZaULfTKr1UfkH3Eo-0" value="&lt;font color=&quot;#cc0000&quot;&gt;Qualifications&lt;/font&gt;" style="shape=image;html=1;verticalAlign=top;verticalLabelPosition=bottom;labelBackgroundColor=none;imageAspect=0;aspect=fixed;image=https://cdn4.iconfinder.com/data/icons/success-filloutline/64/certificate-patent-education-diploma-degree-128.png;fillColor=#006600;fontSize=4;fontColor=#FF0000;labelPosition=center;align=center;" vertex="1" parent="2p5MaKDDWT3B93vbVvwf-1">
          <mxGeometry x="660" y="1202" width="60" height="60" as="geometry" />
        </mxCell>
        <mxCell id="tMN4ZaULfTKr1UfkH3Eo-1" value="" style="edgeStyle=none;rounded=0;orthogonalLoop=1;jettySize=auto;html=1;startArrow=ERmany;startFill=0;endArrow=ERmany;endFill=0;fontSize=4;fontColor=#CC0000;entryX=1;entryY=0;entryDx=0;entryDy=0;" edge="1" parent="2p5MaKDDWT3B93vbVvwf-1" source="-a1UEPuusHy5rhhuWVYW-3" target="tMN4ZaULfTKr1UfkH3Eo-0">
          <mxGeometry relative="1" as="geometry">
            <mxPoint x="830.6800000000001" y="1190" as="sourcePoint" />
            <mxPoint x="830.6800000000001" y="1252" as="targetPoint" />
          </mxGeometry>
        </mxCell>
        <mxCell id="nnRkU9oQdQgpJIRWAUHk-0" value="Login Profile" style="html=1;strokeColor=none;fillColor=#006600;labelPosition=center;verticalLabelPosition=middle;verticalAlign=top;align=center;fontSize=4;outlineConnect=0;spacingTop=-6;fontColor=#FFFFFF;shape=mxgraph.sitemap.login;labelBackgroundColor=none;" vertex="1" parent="2p5MaKDDWT3B93vbVvwf-1">
          <mxGeometry x="640" y="1320" width="70" height="50" as="geometry" />
        </mxCell>
        <mxCell id="nnRkU9oQdQgpJIRWAUHk-1" value="" style="edgeStyle=none;rounded=0;orthogonalLoop=1;jettySize=auto;html=1;startArrow=ERone;startFill=0;endArrow=ERmany;endFill=0;fontSize=4;fontColor=#CC0000;entryX=0.995;entryY=0.005;entryDx=0;entryDy=0;entryPerimeter=0;" edge="1" parent="2p5MaKDDWT3B93vbVvwf-1" source="-a1UEPuusHy5rhhuWVYW-3" target="nnRkU9oQdQgpJIRWAUHk-0">
          <mxGeometry relative="1" as="geometry">
            <mxPoint x="830.6799999999998" y="1190" as="sourcePoint" />
            <mxPoint x="830.6799999999998" y="1252" as="targetPoint" />
          </mxGeometry>
        </mxCell>
        <mxCell id="jrqJTP8oPLpJsrfW2FHw-0" value="&lt;font style=&quot;font-size: 4px&quot;&gt;Role&lt;/font&gt;" style="outlineConnect=0;dashed=0;verticalLabelPosition=top;verticalAlign=bottom;align=center;html=1;shape=mxgraph.aws3.role;fillColor=#759C3E;gradientColor=none;shadow=0;strokeColor=#FF0000;labelBackgroundColor=none;fontColor=#CC0000;fontSize=8;labelPosition=center;" vertex="1" parent="2p5MaKDDWT3B93vbVvwf-1">
          <mxGeometry x="795.6800000000001" y="920" width="60" height="50" as="geometry" />
        </mxCell>
        <mxCell id="jrqJTP8oPLpJsrfW2FHw-1" value="" style="edgeStyle=none;rounded=0;orthogonalLoop=1;jettySize=auto;html=1;startArrow=ERone;startFill=0;endArrow=ERone;endFill=0;fontSize=4;fontColor=#CC0000;entryX=0.5;entryY=1;entryDx=0;entryDy=0;entryPerimeter=0;exitX=0.18;exitY=0.07;exitDx=0;exitDy=0;exitPerimeter=0;" edge="1" parent="2p5MaKDDWT3B93vbVvwf-1" source="-a1UEPuusHy5rhhuWVYW-3" target="m1K5oDZ0NGYN7mKZOKgY-0">
          <mxGeometry relative="1" as="geometry">
            <mxPoint x="795.6800000000003" y="1099.1008107059738" as="sourcePoint" />
            <mxPoint x="684.6599999999999" y="1029.620722265322" as="targetPoint" />
          </mxGeometry>
        </mxCell>
        <mxCell id="LBye4bal2RBIps5nHifw-0" value="Signature" style="shape=image;html=1;verticalAlign=top;verticalLabelPosition=bottom;labelBackgroundColor=none;imageAspect=0;aspect=fixed;image=https://cdn3.iconfinder.com/data/icons/seo-black-fill-easy-1/128/signature_edit_electronic_signature_pen_-128.png;fillColor=#006600;fontSize=4;fontColor=#CC0000;fontStyle=0" vertex="1" parent="2p5MaKDDWT3B93vbVvwf-1">
          <mxGeometry x="980" y="999.57" width="40.85" height="40.85" as="geometry" />
        </mxCell>
        <mxCell id="LBye4bal2RBIps5nHifw-1" value="" style="edgeStyle=none;rounded=0;orthogonalLoop=1;jettySize=auto;html=1;startArrow=ERone;startFill=0;endArrow=ERmany;endFill=0;fontSize=4;fontColor=#CC0000;entryX=0;entryY=0.75;entryDx=0;entryDy=0;" edge="1" parent="2p5MaKDDWT3B93vbVvwf-1" source="-a1UEPuusHy5rhhuWVYW-3" target="LBye4bal2RBIps5nHifw-0">
          <mxGeometry relative="1" as="geometry">
            <mxPoint x="795.6800000000003" y="1121.005" as="sourcePoint" />
            <mxPoint x="740" y="1121.0049999999999" as="targetPoint" />
          </mxGeometry>
        </mxCell>
      </root>
    </mxGraphModel>
  </diagram>
  <diagram id="j1tz6LPWslbSENeFj_a8" name="Page-4">
    <mxGraphModel dx="1990" dy="850" grid="1" gridSize="10" guides="1" tooltips="1" connect="1" arrows="1" fold="1" page="1" pageScale="1" pageWidth="1100" pageHeight="850" math="0" shadow="0">
      <root>
        <mxCell id="buBnpHaQlkSg22EJYlKn-0" />
        <mxCell id="buBnpHaQlkSg22EJYlKn-1" parent="buBnpHaQlkSg22EJYlKn-0" />
        <mxCell id="4MzFADuoBX4V2BXq9GRu-0" value="Persona&amp;nbsp;&lt;br&gt;Ficta" style="triangle;whiteSpace=wrap;html=1;shadow=0;strokeColor=#FF0000;fillColor=none;direction=north;fontSize=10;fontColor=#FF0000;" vertex="1" parent="buBnpHaQlkSg22EJYlKn-1">
          <mxGeometry x="10.000000000000057" y="210" width="200" height="150" as="geometry" />
        </mxCell>
        <mxCell id="J95y7ps1oWAfW7asngwb-3" value="&lt;b&gt;Domain&lt;/b&gt;" style="ellipse;whiteSpace=wrap;html=1;labelBackgroundColor=none;fillColor=#CC0000;fontSize=10;fontColor=#CC0000;strokeColor=none;opacity=60;labelPosition=center;verticalLabelPosition=top;align=center;verticalAlign=bottom;" vertex="1" parent="buBnpHaQlkSg22EJYlKn-1">
          <mxGeometry x="290" y="180" width="550" height="280" as="geometry" />
        </mxCell>
        <mxCell id="_b0V9pyRKqgxFJnDZOTN-2" value="" style="edgeStyle=none;rounded=0;orthogonalLoop=1;jettySize=auto;html=1;startArrow=ERmany;startFill=0;endArrow=ERoneToMany;endFill=0;fontSize=4;fontColor=#CC0000;entryX=0;entryY=0.5;entryDx=0;entryDy=0;exitX=1;exitY=0.5;exitDx=0;exitDy=0;" edge="1" parent="buBnpHaQlkSg22EJYlKn-1" source="4MzFADuoBX4V2BXq9GRu-0" target="_b0V9pyRKqgxFJnDZOTN-0">
          <mxGeometry relative="1" as="geometry">
            <mxPoint x="350" y="235" as="targetPoint" />
          </mxGeometry>
        </mxCell>
        <mxCell id="FpMQ54e3OwlqTCZVogYo-0" value="" style="shape=mxgraph.signs.travel.bank;html=1;fillColor=#CC0000;strokeColor=none;verticalLabelPosition=bottom;verticalAlign=top;align=center;fontColor=#FF0000;fontSize=10;" vertex="1" parent="buBnpHaQlkSg22EJYlKn-1">
          <mxGeometry x="80" y="300" width="60" height="50" as="geometry" />
        </mxCell>
        <mxCell id="_b0V9pyRKqgxFJnDZOTN-0" value="Attributes&lt;br&gt;&lt;br&gt;&lt;br&gt;&lt;br&gt;&lt;br&gt;&lt;br&gt;&lt;br&gt;&lt;br&gt;" style="triangle;whiteSpace=wrap;html=1;shadow=0;strokeColor=#005700;fillColor=none;direction=south;fontColor=#006600;flipV=1;labelPosition=center;verticalLabelPosition=bottom;align=center;verticalAlign=top;" vertex="1" parent="buBnpHaQlkSg22EJYlKn-1">
          <mxGeometry x="387.5" y="30" width="662.5" height="490" as="geometry" />
        </mxCell>
        <mxCell id="4MzFADuoBX4V2BXq9GRu-1" value="&lt;br&gt;&lt;br&gt;&lt;br&gt;Identity" style="triangle;whiteSpace=wrap;html=1;shadow=0;strokeColor=#005700;fillColor=none;direction=south;fontColor=#ffffff;flipV=0;flipH=1;" vertex="1" parent="buBnpHaQlkSg22EJYlKn-1">
          <mxGeometry x="580" y="280" width="240" height="160" as="geometry" />
        </mxCell>
        <mxCell id="J95y7ps1oWAfW7asngwb-1" style="edgeStyle=none;rounded=0;orthogonalLoop=1;jettySize=auto;html=1;exitX=0.5;exitY=0;exitDx=0;exitDy=0;startArrow=ERmany;startFill=0;endArrow=ERoneToMany;endFill=0;fontSize=4;fontColor=#CC0000;" edge="1" parent="buBnpHaQlkSg22EJYlKn-1" source="4MzFADuoBX4V2BXq9GRu-0" target="4MzFADuoBX4V2BXq9GRu-0">
          <mxGeometry relative="1" as="geometry" />
        </mxCell>
        <mxCell id="J95y7ps1oWAfW7asngwb-2" value="" style="edgeStyle=none;rounded=0;orthogonalLoop=1;jettySize=auto;html=1;startArrow=ERmany;startFill=0;endArrow=ERoneToMany;endFill=0;fontSize=4;fontColor=#CC0000;entryX=-0.001;entryY=-0.01;entryDx=0;entryDy=0;exitX=0.5;exitY=1;exitDx=0;exitDy=0;entryPerimeter=0;" edge="1" parent="buBnpHaQlkSg22EJYlKn-1" source="4MzFADuoBX4V2BXq9GRu-0" target="4MzFADuoBX4V2BXq9GRu-1">
          <mxGeometry relative="1" as="geometry">
            <mxPoint x="170" y="300" as="sourcePoint" />
            <mxPoint x="508.24000000000024" y="373.9200000000002" as="targetPoint" />
          </mxGeometry>
        </mxCell>
        <mxCell id="J95y7ps1oWAfW7asngwb-5" value="" style="edgeStyle=none;rounded=0;orthogonalLoop=1;jettySize=auto;html=1;startArrow=ERone;startFill=0;endArrow=ERone;endFill=0;fontSize=4;fontColor=#CC0000;exitX=0.97;exitY=0.65;exitDx=0;exitDy=0;exitPerimeter=0;" edge="1" parent="buBnpHaQlkSg22EJYlKn-1" source="FpMQ54e3OwlqTCZVogYo-0" target="J95y7ps1oWAfW7asngwb-0">
          <mxGeometry relative="1" as="geometry">
            <mxPoint x="220" y="335" as="targetPoint" />
          </mxGeometry>
        </mxCell>
        <mxCell id="J95y7ps1oWAfW7asngwb-0" value="&lt;br&gt;&lt;br&gt;Identifiers" style="triangle;whiteSpace=wrap;html=1;shadow=0;strokeColor=#2D7600;fillColor=none;direction=south;fontColor=#ffffff;flipV=1;" vertex="1" parent="buBnpHaQlkSg22EJYlKn-1">
          <mxGeometry x="650" y="300" width="100" height="70" as="geometry" />
        </mxCell>
        <mxCell id="J95y7ps1oWAfW7asngwb-8" value="&lt;b&gt;Use Case&lt;/b&gt;" style="ellipse;whiteSpace=wrap;html=1;labelBackgroundColor=none;fillColor=#d80073;fontSize=10;fontColor=#ffffff;strokeColor=#A50040;opacity=60;labelPosition=center;verticalLabelPosition=top;align=center;verticalAlign=bottom;" vertex="1" parent="buBnpHaQlkSg22EJYlKn-1">
          <mxGeometry x="620" y="220" width="170" height="100" as="geometry" />
        </mxCell>
        <mxCell id="J95y7ps1oWAfW7asngwb-9" value="" style="triangle;whiteSpace=wrap;html=1;shadow=0;strokeColor=#2D7600;fillColor=#60a917;direction=south;fontColor=#ffffff;flipV=1;" vertex="1" parent="buBnpHaQlkSg22EJYlKn-1">
          <mxGeometry x="686.25" y="300" width="27.5" height="20" as="geometry" />
        </mxCell>
      </root>
    </mxGraphModel>
  </diagram>
</mxfile>
